<?xml version="1.0" encoding="UTF-8"?>
<!DOCTYPE svg PUBLIC "-//W3C//DTD SVG 1.1//EN" "http://www.w3.org/Graphics/SVG/1.1/DTD/svg11.dtd">
<svg xmlns="http://www.w3.org/2000/svg" version="2.2" width="512px" height="512px" style="shape-rendering:geometricPrecision; text-rendering:geometricPrecision; image-rendering:optimizeQuality; fill-rule:evenodd; clip-rule:evenodd" xmlns:xlink="http://www.w3.org/1999/xlink">
<g><path style="opacity:0.993" fill="#1919ea" d="M 28.5,-0.5 C 51.1667,-0.5 73.8333,-0.5 96.5,-0.5C 101.728,4.34382 101.728,9.17715 96.5,14C 74.8403,14.8887 53.1736,15.5554 31.5,16C 23.6667,18.5 18.5,23.6667 16,31.5C 15.5,64.8317 15.3333,98.165 15.5,131.5C 14.5015,170.33 14.1681,209.33 14.5,248.5C 28.6766,248.829 42.6766,248.496 56.5,247.5C 68.5,247.5 80.5,247.5 92.5,247.5C 92.6621,245.473 92.4955,243.473 92,241.5C 80.0816,220.983 80.7483,200.983 94,181.5C 111.366,163.281 131.532,159.447 154.5,170C 180.783,189.144 185.95,212.977 170,241.5C 169.205,244.383 170.371,245.883 173.5,246C 183.828,246.5 194.161,246.666 204.5,246.5C 218.99,247.496 233.657,247.829 248.5,247.5C 248.821,241.974 248.488,236.64 247.5,231.5C 247.862,226.398 248.695,221.398 250,216.5C 253.406,214.211 256.906,214.044 260.5,216C 261.893,217.171 262.727,218.671 263,220.5C 263.463,229.174 263.963,237.841 264.5,246.5C 290.172,246.65 315.839,247.15 341.5,248C 351.734,249.571 357.067,255.571 357.5,266C 355.468,274.763 352.635,283.263 349,291.5C 346.101,308.868 352.601,321.368 368.5,329C 388.145,333.761 401.978,326.927 410,308.5C 410.667,302.833 410.667,297.167 410,291.5C 407.949,285.729 405.616,280.063 403,274.5C 401.902,267.615 402.569,260.949 405,254.5C 407.234,252.3 409.734,250.467 412.5,249C 422.91,248.809 433.243,248.309 443.5,247.5C 460.992,248.497 478.659,248.83 496.5,248.5C 496.828,237.986 496.494,227.653 495.5,217.5C 495.667,154.832 495.5,92.1658 495,29.5C 491.833,23.6667 487.333,19.1667 481.5,16C 426.834,15.5 372.168,15.3333 317.5,15.5C 299.674,14.5032 281.674,14.1699 263.5,14.5C 263.171,28.3435 263.504,42.0102 264.5,55.5C 264.5,67.8333 264.5,80.1667 264.5,92.5C 270.278,92.1184 275.611,90.2851 280.5,87C 311.878,77.7728 333.711,88.2728 346,118.5C 350.807,146.393 340.307,165.893 314.5,177C 305.896,178.542 297.23,178.876 288.5,178C 281.294,175.654 274.294,172.821 267.5,169.5C 266.353,169.818 265.519,170.484 265,171.5C 264.436,178.579 263.436,185.579 262,192.5C 258.451,195.365 254.618,195.865 250.5,194C 248.772,189.55 247.772,184.884 247.5,180C 245.954,159.204 255.288,150.871 275.5,155C 281.063,157.616 286.729,159.949 292.5,162C 319.501,163.332 332.001,150.499 330,123.5C 323.855,106.36 311.688,98.5271 293.5,100C 287.729,102.051 282.063,104.384 276.5,107C 266.657,111.247 258.157,109.413 251,101.5C 250.027,99.6079 249.36,97.6079 249,95.5C 248.619,83.1569 248.119,70.8236 247.5,58.5C 248.496,44.0095 248.829,29.3428 248.5,14.5C 221.328,14.1688 194.328,14.5021 167.5,15.5C 153.241,14.6836 138.908,14.1836 124.5,14C 118.231,9.65742 117.898,4.82408 123.5,-0.5C 243.833,-0.5 364.167,-0.5 484.5,-0.5C 497.167,4.83333 506.167,13.8333 511.5,26.5C 511.5,154.833 511.5,283.167 511.5,411.5C 506.176,417.102 501.343,416.769 497,410.5C 496.278,392.171 495.778,373.838 495.5,355.5C 496.498,325.005 496.831,294.338 496.5,263.5C 470.167,263.5 443.833,263.5 417.5,263.5C 417.232,265.099 417.566,266.432 418.5,267.5C 420.647,273.135 422.813,278.802 425,284.5C 431.458,312.081 421.958,331.914 396.5,344C 369.925,351.26 349.758,343.094 336,319.5C 331.113,308.073 330.446,296.406 334,284.5C 336.476,278.561 338.642,272.561 340.5,266.5C 341.404,265.791 341.737,264.791 341.5,263.5C 315.5,263.5 289.5,263.5 263.5,263.5C 263.232,265.099 263.566,266.432 264.5,267.5C 263.787,291.491 263.287,315.491 263,339.5C 262.349,350.818 256.349,356.818 245,357.5C 241.407,357.06 237.907,356.227 234.5,355C 229.807,352.951 225.141,350.951 220.5,349C 212.438,348.864 204.438,348.197 196.5,347C 192.862,342.488 193.196,338.155 197.5,334C 206.129,331.668 214.795,331.335 223.5,333C 230.308,335.242 236.975,337.742 243.5,340.5C 244.568,341.434 245.901,341.768 247.5,341.5C 247.5,315.5 247.5,289.5 247.5,263.5C 242.305,263.179 237.305,263.513 232.5,264.5C 211.906,263.678 191.24,263.178 170.5,263C 159.719,261.885 154.053,255.885 153.5,245C 153.523,242.075 154.023,239.241 155,236.5C 157.616,230.937 159.949,225.271 162,219.5C 164.202,196.205 153.702,183.205 130.5,180.5C 109.34,183.162 99.1729,195.162 100,216.5C 101.827,223.821 104.494,230.821 108,237.5C 110.942,248.77 107.442,257.27 97.5,263C 75.094,263.177 52.7607,263.677 30.5,264.5C 25.3595,263.512 20.0262,263.179 14.5,263.5C 14.1678,315.336 14.5011,367.003 15.5,418.5C 15.3334,438.836 15.5,459.169 16,479.5C 18.5,487.333 23.6667,492.5 31.5,495C 61.4981,495.5 91.4981,495.667 121.5,495.5C 163.663,496.499 205.997,496.832 248.5,496.5C 248.829,481.657 248.496,466.99 247.5,452.5C 247.821,441.252 247.487,430.085 246.5,419C 244.5,418.333 242.5,418.333 240.5,419C 222.308,429.795 203.975,430.128 185.5,420C 164.787,403.982 159.287,383.816 169,359.5C 175.978,355.485 180.478,357.318 182.5,365C 176.246,385.946 182.913,400.946 202.5,410C 209.567,410.839 216.567,410.506 223.5,409C 233.977,402.165 244.977,400.832 256.5,405C 259.754,407.342 261.588,410.509 262,414.5C 263.036,435.504 263.869,456.504 264.5,477.5C 263.51,483.645 263.177,489.978 263.5,496.5C 308.003,496.832 352.336,496.499 396.5,495.5C 425.217,495.967 453.884,495.467 482.5,494C 488.183,490.463 492.35,485.63 495,479.5C 495.188,465.805 495.855,452.138 497,438.5C 501.823,433.272 506.656,433.272 511.5,438.5C 511.5,453.833 511.5,469.167 511.5,484.5C 506.167,497.167 497.167,506.167 484.5,511.5C 331.833,511.5 179.167,511.5 26.5,511.5C 13.8333,506.167 4.83333,497.167 -0.5,484.5C -0.5,331.833 -0.5,179.167 -0.5,26.5C 5.02278,12.9749 14.6894,3.97489 28.5,-0.5 Z M 413.5,99.5 C 439.323,99.1559 451.823,111.823 451,137.5C 442.874,160.437 427.374,167.603 404.5,159C 387.928,147.547 384.095,132.714 393,114.5C 398.221,107.154 405.054,102.154 413.5,99.5 Z M 87.5,348.5 C 101.07,347.881 109.57,354.214 113,367.5C 116.805,382.443 113.639,395.61 103.5,407C 100.382,408.893 97.0487,410.226 93.5,411C 87.8112,411.373 82.1445,411.873 76.5,412.5C 76.5,391.167 76.5,369.833 76.5,348.5C 80.1667,348.5 83.8333,348.5 87.5,348.5 Z M 377.5,388.5 C 388.812,387.979 393.646,393.312 392,404.5C 388.906,410.965 383.74,413.631 376.5,412.5C 373.167,412.5 369.833,412.5 366.5,412.5C 366.5,404.5 366.5,396.5 366.5,388.5C 370.167,388.5 373.833,388.5 377.5,388.5 Z"/></g>
<g><path style="opacity:0.067" fill="#1010d3" d="M 167.5,15.5 C 194.328,14.5021 221.328,14.1688 248.5,14.5C 248.829,29.3428 248.496,44.0095 247.5,58.5C 247.5,44.1667 247.5,29.8333 247.5,15.5C 220.833,15.5 194.167,15.5 167.5,15.5 Z"/></g>
<g><path style="opacity:0.245" fill="#1212de" d="M 317.5,15.5 C 299.833,15.5 282.167,15.5 264.5,15.5C 264.5,28.8333 264.5,42.1667 264.5,55.5C 263.504,42.0102 263.171,28.3435 263.5,14.5C 281.674,14.1699 299.674,14.5032 317.5,15.5 Z"/></g>
<g><path style="opacity:0.998" fill="#1919ea" d="M 84.5,43.5 C 87.9297,43.1065 91.0964,43.7732 94,45.5C 98.4721,64.2046 102.805,82.8713 107,101.5C 112.202,85.561 117.202,69.561 122,53.5C 123.291,45.5189 127.791,42.3522 135.5,44C 136.701,44.9025 137.535,46.0692 138,47.5C 144.155,65.7856 150.155,84.1189 156,102.5C 159.618,84.0769 163.618,65.7435 168,47.5C 171.866,42.5841 176.199,42.2508 181,46.5C 181.638,47.6086 182.138,48.7753 182.5,50C 178.181,74.9265 173.348,99.7598 168,124.5C 167.337,128.994 165.837,133.161 163.5,137C 158.946,140.165 154.446,139.998 150,136.5C 143.656,118.134 137.323,99.8002 131,81.5C 125.461,99.324 119.461,116.991 113,134.5C 108.625,139.708 103.625,140.374 98,136.5C 91.6523,112.099 86.319,87.4319 82,62.5C 80.9193,57.5302 80.586,52.5302 81,47.5C 81.6897,45.6498 82.8564,44.3164 84.5,43.5 Z"/></g>
<g><path style="opacity:0.998" fill="#1919ea" d="M 411.5,83.5 C 440.619,81.6256 459.119,94.6256 467,122.5C 469.622,150.855 457.455,169.355 430.5,178C 404.714,181.692 386.214,171.859 375,148.5C 366.915,115.328 379.082,93.6615 411.5,83.5 Z M 413.5,99.5 C 405.054,102.154 398.221,107.154 393,114.5C 384.095,132.714 387.928,147.547 404.5,159C 427.374,167.603 442.874,160.437 451,137.5C 451.823,111.823 439.323,99.1559 413.5,99.5 Z"/></g>
<g><path style="opacity:0.051" fill="#1212d6" d="M 15.5,131.5 C 15.5,170.167 15.5,208.833 15.5,247.5C 29.1667,247.5 42.8333,247.5 56.5,247.5C 42.6766,248.496 28.6766,248.829 14.5,248.5C 14.1681,209.33 14.5015,170.33 15.5,131.5 Z"/></g>
<g><path style="opacity:0.246" fill="#1212dd" d="M 247.5,231.5 C 248.488,236.64 248.821,241.974 248.5,247.5C 233.657,247.829 218.99,247.496 204.5,246.5C 218.833,246.5 233.167,246.5 247.5,246.5C 247.5,241.5 247.5,236.5 247.5,231.5 Z"/></g>
<g><path style="opacity:0.067" fill="#0f0fd4" d="M 495.5,217.5 C 496.494,227.653 496.828,237.986 496.5,248.5C 478.659,248.83 460.992,248.497 443.5,247.5C 460.833,247.5 478.167,247.5 495.5,247.5C 495.5,237.5 495.5,227.5 495.5,217.5 Z"/></g>
<g><path style="opacity:0.067" fill="#0e0ed2" d="M 340.5,266.5 C 315.522,264.509 290.189,263.843 264.5,264.5C 264.5,265.5 264.5,266.5 264.5,267.5C 263.566,266.432 263.232,265.099 263.5,263.5C 289.5,263.5 315.5,263.5 341.5,263.5C 341.737,264.791 341.404,265.791 340.5,266.5 Z"/></g>
<g><path style="opacity:0.051" fill="#1313d8" d="M 30.5,264.5 C 25.5,264.5 20.5,264.5 15.5,264.5C 15.5,315.833 15.5,367.167 15.5,418.5C 14.5011,367.003 14.1678,315.336 14.5,263.5C 20.0262,263.179 25.3595,263.512 30.5,264.5 Z"/></g>
<g><path style="opacity:0.051" fill="#1313d8" d="M 232.5,264.5 C 237.305,263.513 242.305,263.179 247.5,263.5C 247.5,289.5 247.5,315.5 247.5,341.5C 245.901,341.768 244.568,341.434 243.5,340.5C 244.5,340.5 245.5,340.5 246.5,340.5C 246.5,315.167 246.5,289.833 246.5,264.5C 241.833,264.5 237.167,264.5 232.5,264.5 Z"/></g>
<g><path style="opacity:0.051" fill="#1111d5" d="M 495.5,355.5 C 495.5,325.167 495.5,294.833 495.5,264.5C 469.833,264.5 444.167,264.5 418.5,264.5C 418.5,265.5 418.5,266.5 418.5,267.5C 417.566,266.432 417.232,265.099 417.5,263.5C 443.833,263.5 470.167,263.5 496.5,263.5C 496.831,294.338 496.498,325.005 495.5,355.5 Z"/></g>
<g><path style="opacity:0.998" fill="#1919ea" d="M 77.5,331.5 C 104.318,327.869 121.485,338.869 129,364.5C 134.503,412.995 113.003,433.829 64.5,427C 62.6667,426.5 61.5,425.333 61,423.5C 59.0133,394.499 59.0133,365.499 61,336.5C 61.4652,335.069 62.2986,333.903 63.5,333C 68.3514,332.826 73.0181,332.326 77.5,331.5 Z M 87.5,348.5 C 101.07,347.881 109.57,354.214 113,367.5C 116.805,382.443 113.639,395.61 103.5,407C 100.382,408.893 97.0487,410.226 93.5,411C 87.8112,411.373 82.1445,411.873 76.5,412.5C 76.5,391.167 76.5,369.833 76.5,348.5C 80.1667,348.5 83.8333,348.5 87.5,348.5 Z"/></g>
<g><path style="opacity:0.051" fill="#1313d7" d="M 87.5,348.5 C 83.8333,348.5 80.1667,348.5 76.5,348.5C 76.5,369.833 76.5,391.167 76.5,412.5C 75.5027,391.006 75.1693,369.34 75.5,347.5C 79.7016,347.183 83.7016,347.517 87.5,348.5 Z"/></g>
<g><path style="opacity:0.998" fill="#1919ea" d="M 354.5,371.5 C 366.912,371.383 379.245,372.216 391.5,374C 407.009,382.188 412.175,394.688 407,411.5C 402.53,420.158 395.697,426.158 386.5,429.5C 393.478,438.312 400.645,446.979 408,455.5C 409.102,467.363 404.602,470.196 394.5,464C 385.216,453.928 376.05,443.761 367,433.5C 366.613,443.519 365.946,453.519 365,463.5C 361.001,468.463 356.501,468.796 351.5,464.5C 349.485,435.203 349.318,405.869 351,376.5C 351.997,374.677 353.164,373.01 354.5,371.5 Z M 377.5,388.5 C 388.812,387.979 393.646,393.312 392,404.5C 388.906,410.965 383.74,413.631 376.5,412.5C 373.167,412.5 369.833,412.5 366.5,412.5C 366.5,404.5 366.5,396.5 366.5,388.5C 370.167,388.5 373.833,388.5 377.5,388.5 Z"/></g>
<g><path style="opacity:0.051" fill="#1212d6" d="M 377.5,388.5 C 373.833,388.5 370.167,388.5 366.5,388.5C 366.5,396.5 366.5,404.5 366.5,412.5C 369.833,412.5 373.167,412.5 376.5,412.5C 373.038,413.482 369.371,413.815 365.5,413.5C 365.5,404.833 365.5,396.167 365.5,387.5C 369.702,387.183 373.702,387.517 377.5,388.5 Z"/></g>
<g><path style="opacity:0.067" fill="#100fd3" d="M 247.5,452.5 C 248.496,466.99 248.829,481.657 248.5,496.5C 205.997,496.832 163.663,496.499 121.5,495.5C 163.5,495.5 205.5,495.5 247.5,495.5C 247.5,481.167 247.5,466.833 247.5,452.5 Z"/></g>
<g><path style="opacity:0.067" fill="#0f0fd2" d="M 264.5,477.5 C 264.5,483.5 264.5,489.5 264.5,495.5C 308.5,495.5 352.5,495.5 396.5,495.5C 352.336,496.499 308.003,496.832 263.5,496.5C 263.177,489.978 263.51,483.645 264.5,477.5 Z"/></g>
</svg>
